<svg xmlns="http://www.w3.org/2000/svg" viewBox="0 0 32 32"><path d="M16 1C7.715 1 1 7.716 1 16c0 6.628 4.298 12.25 10.26 14.234.75.138 1.023-.326 1.023-.723 0-.355-.013-1.298-.02-2.55-4.172.906-5.053-2.01-5.053-2.01-.682-1.734-1.665-2.195-1.665-2.195-1.362-.93.103-.912.103-.912 1.505.106 2.298 1.546 2.298 1.546 1.338 2.29 3.51 1.63 4.365 1.245.137-.97.525-1.63.953-2.005-3.33-.38-6.833-1.665-6.833-7.413 0-1.638.584-2.977 1.544-4.025-.154-.38-.67-1.905.147-3.97 0 0 1.26-.403 4.126 1.538 1.196-.333 2.48-.5 3.755-.505 1.275.006 2.558.172 3.756.505 2.864-1.94 4.12-1.538 4.12-1.538.82 2.065.305 3.59.15 3.97.96 1.05 1.542 2.388 1.542 4.025 0 5.762-3.507 7.03-6.85 7.402.54.462 1.02 1.378 1.02 2.777 0 2.005-.02 3.623-.02 4.115 0 .4.27.868 1.032.72C26.706 28.245 31 22.627 31 16.003 31 7.715 24.283 1 16 1z" fill-rule="evenodd" clip-rule="evenodd" fill="#191717"/></svg>